<?xml version="1.0" encoding="UTF-8" standalone="no"?><svg xmlns="http://www.w3.org/2000/svg" xmlns:xlink="http://www.w3.org/1999/xlink" contentStyleType="text/css" height="357px" preserveAspectRatio="none" style="width:953px;height:357px;background:#FFFFFF;" version="1.1" viewBox="0 0 953 357" width="953px" zoomAndPan="magnify"><defs/><g><rect fill="#F1F1F1" height="81.1875" rx="5" ry="5" style="stroke:#F1F1F1;stroke-width:1.5;" width="170" x="10" y="98"/><text fill="#000000" font-family="sans-serif" font-size="14" font-weight="bold" lengthAdjust="spacing" textLength="38" x="15" y="112.9951">path</text><text fill="#000000" font-family="sans-serif" font-size="14" lengthAdjust="spacing" textLength="76" x="99" y="112.9951">extract.go</text><line style="stroke:#000000;stroke-width:1.0;" x1="94" x2="94" y1="98" y2="118.2969"/><line style="stroke:#000000;stroke-width:1.0;" x1="10" x2="180" y1="118.2969" y2="118.2969"/><text fill="#000000" font-family="sans-serif" font-size="14" font-weight="bold" lengthAdjust="spacing" textLength="74" x="15" y="133.292">language</text><text fill="#000000" font-family="sans-serif" font-size="14" lengthAdjust="spacing" textLength="61" x="99" y="133.292">GOLANG</text><line style="stroke:#000000;stroke-width:1.0;" x1="94" x2="94" y1="118.2969" y2="138.5938"/><line style="stroke:#000000;stroke-width:1.0;" x1="10" x2="180" y1="138.5938" y2="138.5938"/><text fill="#000000" font-family="sans-serif" font-size="14" font-weight="bold" lengthAdjust="spacing" textLength="36" x="15" y="153.5889">type</text><text fill="#000000" font-family="sans-serif" font-size="14" lengthAdjust="spacing" textLength="31" x="99" y="153.5889">func</text><line style="stroke:#000000;stroke-width:1.0;" x1="94" x2="94" y1="138.5938" y2="158.8906"/><line style="stroke:#000000;stroke-width:1.0;" x1="10" x2="180" y1="158.8906" y2="158.8906"/><text fill="#000000" font-family="sans-serif" font-size="14" font-weight="bold" lengthAdjust="spacing" textLength="42" x="15" y="173.8857">units</text><text fill="#000000" font-family="sans-serif" font-size="14" lengthAdjust="spacing" textLength="12" x="99" y="173.8857">   </text><line style="stroke:#000000;stroke-width:1.0;" x1="94" x2="94" y1="158.8906" y2="179.1875"/><rect fill="none" height="81.1875" rx="5" ry="5" style="stroke:#000000;stroke-width:1.5;" width="170" x="10" y="98"/><rect fill="#F1F1F1" height="20.2969" rx="5" ry="5" style="stroke:#F1F1F1;stroke-width:1.5;" width="22" x="217" y="158.5"/><text fill="#000000" font-family="sans-serif" font-size="14" lengthAdjust="spacing" textLength="12" x="222" y="173.4951">   </text><rect fill="none" height="20.2969" rx="5" ry="5" style="stroke:#000000;stroke-width:1.5;" width="22" x="217" y="158.5"/><rect fill="#F1F1F1" height="121.7813" rx="5" ry="5" style="stroke:#F1F1F1;stroke-width:1.5;" width="229" x="278" y="107.5"/><text fill="#000000" font-family="sans-serif" font-size="14" font-weight="bold" lengthAdjust="spacing" textLength="44" x="283" y="122.4951">name</text><text fill="#000000" font-family="sans-serif" font-size="14" lengthAdjust="spacing" textLength="115" x="387" y="122.4951">ExtractFunction</text><line style="stroke:#000000;stroke-width:1.0;" x1="382" x2="382" y1="107.5" y2="127.7969"/><line style="stroke:#000000;stroke-width:1.0;" x1="278" x2="507" y1="127.7969" y2="127.7969"/><text fill="#000000" font-family="sans-serif" font-size="14" font-weight="bold" lengthAdjust="spacing" textLength="64" x="283" y="142.792">receiver</text><text fill="#000000" font-family="sans-serif" font-size="14" lengthAdjust="spacing" textLength="4" x="387" y="142.792"> </text><line style="stroke:#000000;stroke-width:1.0;" x1="382" x2="382" y1="127.7969" y2="148.0938"/><line style="stroke:#000000;stroke-width:1.0;" x1="278" x2="507" y1="148.0938" y2="148.0938"/><text fill="#000000" font-family="sans-serif" font-size="14" font-weight="bold" lengthAdjust="spacing" textLength="94" x="283" y="163.0889">parameters</text><text fill="#000000" font-family="sans-serif" font-size="14" lengthAdjust="spacing" textLength="12" x="387" y="163.0889">   </text><line style="stroke:#000000;stroke-width:1.0;" x1="382" x2="382" y1="148.0938" y2="168.3906"/><line style="stroke:#000000;stroke-width:1.0;" x1="278" x2="507" y1="168.3906" y2="168.3906"/><text fill="#000000" font-family="sans-serif" font-size="14" font-weight="bold" lengthAdjust="spacing" textLength="60" x="283" y="183.3857">returns</text><text fill="#000000" font-family="sans-serif" font-size="14" lengthAdjust="spacing" textLength="12" x="387" y="183.3857">   </text><line style="stroke:#000000;stroke-width:1.0;" x1="382" x2="382" y1="168.3906" y2="188.6875"/><line style="stroke:#000000;stroke-width:1.0;" x1="278" x2="507" y1="188.6875" y2="188.6875"/><text fill="#000000" font-family="sans-serif" font-size="14" font-weight="bold" lengthAdjust="spacing" textLength="39" x="283" y="203.6826">span</text><text fill="#000000" font-family="sans-serif" font-size="14" lengthAdjust="spacing" textLength="12" x="387" y="203.6826">   </text><line style="stroke:#000000;stroke-width:1.0;" x1="382" x2="382" y1="188.6875" y2="208.9844"/><line style="stroke:#000000;stroke-width:1.0;" x1="278" x2="507" y1="208.9844" y2="208.9844"/><text fill="#000000" font-family="sans-serif" font-size="14" font-weight="bold" lengthAdjust="spacing" textLength="52" x="283" y="223.9795">extras</text><text fill="#000000" font-family="sans-serif" font-size="14" lengthAdjust="spacing" textLength="7" x="387" y="223.9795">␀</text><line style="stroke:#000000;stroke-width:1.0;" x1="382" x2="382" y1="208.9844" y2="229.2813"/><rect fill="none" height="121.7813" rx="5" ry="5" style="stroke:#000000;stroke-width:1.5;" width="229" x="278" y="107.5"/><rect fill="#F1F1F1" height="40.5938" rx="5" ry="5" style="stroke:#F1F1F1;stroke-width:1.5;" width="22" x="569" y="59"/><text fill="#000000" font-family="sans-serif" font-size="14" lengthAdjust="spacing" textLength="12" x="574" y="73.9951">   </text><line style="stroke:#000000;stroke-width:1.0;" x1="569" x2="591" y1="79.2969" y2="79.2969"/><text fill="#000000" font-family="sans-serif" font-size="14" lengthAdjust="spacing" textLength="12" x="574" y="94.292">   </text><rect fill="none" height="40.5938" rx="5" ry="5" style="stroke:#000000;stroke-width:1.5;" width="22" x="569" y="59"/><rect fill="#F1F1F1" height="40.5938" rx="5" ry="5" style="stroke:#F1F1F1;stroke-width:1.5;" width="135" x="730.5" y="10"/><text fill="#000000" font-family="sans-serif" font-size="14" font-weight="bold" lengthAdjust="spacing" textLength="36" x="735.5" y="24.9951">type</text><text fill="#000000" font-family="sans-serif" font-size="14" lengthAdjust="spacing" textLength="42" x="789.5" y="24.9951">string</text><line style="stroke:#000000;stroke-width:1.0;" x1="784.5" x2="784.5" y1="10" y2="30.2969"/><line style="stroke:#000000;stroke-width:1.0;" x1="730.5" x2="865.5" y1="30.2969" y2="30.2969"/><text fill="#000000" font-family="sans-serif" font-size="14" font-weight="bold" lengthAdjust="spacing" textLength="44" x="735.5" y="45.292">name</text><text fill="#000000" font-family="sans-serif" font-size="14" lengthAdjust="spacing" textLength="71" x="789.5" y="45.292">targetFile</text><line style="stroke:#000000;stroke-width:1.0;" x1="784.5" x2="784.5" y1="30.2969" y2="50.5938"/><rect fill="none" height="40.5938" rx="5" ry="5" style="stroke:#000000;stroke-width:1.5;" width="135" x="730.5" y="10"/><rect fill="#F1F1F1" height="40.5938" rx="5" ry="5" style="stroke:#F1F1F1;stroke-width:1.5;" width="171" x="712.5" y="69"/><text fill="#000000" font-family="sans-serif" font-size="14" font-weight="bold" lengthAdjust="spacing" textLength="36" x="717.5" y="83.9951">type</text><text fill="#000000" font-family="sans-serif" font-size="14" lengthAdjust="spacing" textLength="107" x="771.5" y="83.9951">*ExtractConfig</text><line style="stroke:#000000;stroke-width:1.0;" x1="766.5" x2="766.5" y1="69" y2="89.2969"/><line style="stroke:#000000;stroke-width:1.0;" x1="712.5" x2="883.5" y1="89.2969" y2="89.2969"/><text fill="#000000" font-family="sans-serif" font-size="14" font-weight="bold" lengthAdjust="spacing" textLength="44" x="717.5" y="104.292">name</text><text fill="#000000" font-family="sans-serif" font-size="14" lengthAdjust="spacing" textLength="45" x="771.5" y="104.292">config</text><line style="stroke:#000000;stroke-width:1.0;" x1="766.5" x2="766.5" y1="89.2969" y2="109.5938"/><rect fill="none" height="40.5938" rx="5" ry="5" style="stroke:#000000;stroke-width:1.5;" width="171" x="712.5" y="69"/><rect fill="#F1F1F1" height="40.5938" rx="5" ry="5" style="stroke:#F1F1F1;stroke-width:1.5;" width="22" x="569" y="158"/><text fill="#000000" font-family="sans-serif" font-size="14" lengthAdjust="spacing" textLength="12" x="574" y="172.9951">   </text><line style="stroke:#000000;stroke-width:1.0;" x1="569" x2="591" y1="178.2969" y2="178.2969"/><text fill="#000000" font-family="sans-serif" font-size="14" lengthAdjust="spacing" textLength="12" x="574" y="193.292">   </text><rect fill="none" height="40.5938" rx="5" ry="5" style="stroke:#000000;stroke-width:1.5;" width="22" x="569" y="158"/><rect fill="#F1F1F1" height="40.5938" rx="5" ry="5" style="stroke:#F1F1F1;stroke-width:1.5;" width="286" x="655" y="128"/><text fill="#000000" font-family="sans-serif" font-size="14" font-weight="bold" lengthAdjust="spacing" textLength="36" x="660" y="142.9951">type</text><text fill="#000000" font-family="sans-serif" font-size="14" lengthAdjust="spacing" textLength="222" x="714" y="142.9951">[]*extractor.FunctionFileResult</text><line style="stroke:#000000;stroke-width:1.0;" x1="709" x2="709" y1="128" y2="148.2969"/><line style="stroke:#000000;stroke-width:1.0;" x1="655" x2="941" y1="148.2969" y2="148.2969"/><text fill="#000000" font-family="sans-serif" font-size="14" font-weight="bold" lengthAdjust="spacing" textLength="44" x="660" y="163.292">name</text><text fill="#000000" font-family="sans-serif" font-size="14" lengthAdjust="spacing" textLength="4" x="714" y="163.292"> </text><line style="stroke:#000000;stroke-width:1.0;" x1="709" x2="709" y1="148.2969" y2="168.5938"/><rect fill="none" height="40.5938" rx="5" ry="5" style="stroke:#000000;stroke-width:1.5;" width="286" x="655" y="128"/><rect fill="#F1F1F1" height="40.5938" rx="5" ry="5" style="stroke:#F1F1F1;stroke-width:1.5;" width="100" x="748" y="187"/><text fill="#000000" font-family="sans-serif" font-size="14" font-weight="bold" lengthAdjust="spacing" textLength="36" x="753" y="201.9951">type</text><text fill="#000000" font-family="sans-serif" font-size="14" lengthAdjust="spacing" textLength="36" x="807" y="201.9951">error</text><line style="stroke:#000000;stroke-width:1.0;" x1="802" x2="802" y1="187" y2="207.2969"/><line style="stroke:#000000;stroke-width:1.0;" x1="748" x2="848" y1="207.2969" y2="207.2969"/><text fill="#000000" font-family="sans-serif" font-size="14" font-weight="bold" lengthAdjust="spacing" textLength="44" x="753" y="222.292">name</text><text fill="#000000" font-family="sans-serif" font-size="14" lengthAdjust="spacing" textLength="4" x="807" y="222.292"> </text><line style="stroke:#000000;stroke-width:1.0;" x1="802" x2="802" y1="207.2969" y2="227.5938"/><rect fill="none" height="40.5938" rx="5" ry="5" style="stroke:#000000;stroke-width:1.5;" width="100" x="748" y="187"/><rect fill="#F1F1F1" height="40.5938" rx="5" ry="5" style="stroke:#F1F1F1;stroke-width:1.5;" width="74" x="544" y="257"/><text fill="#000000" font-family="sans-serif" font-size="14" font-weight="bold" lengthAdjust="spacing" textLength="42" x="549" y="271.9951">start</text><text fill="#000000" font-family="sans-serif" font-size="14" lengthAdjust="spacing" textLength="12" x="601" y="271.9951">   </text><line style="stroke:#000000;stroke-width:1.0;" x1="596" x2="596" y1="257" y2="277.2969"/><line style="stroke:#000000;stroke-width:1.0;" x1="544" x2="618" y1="277.2969" y2="277.2969"/><text fill="#000000" font-family="sans-serif" font-size="14" font-weight="bold" lengthAdjust="spacing" textLength="29" x="549" y="292.292">end</text><text fill="#000000" font-family="sans-serif" font-size="14" lengthAdjust="spacing" textLength="12" x="601" y="292.292">   </text><line style="stroke:#000000;stroke-width:1.0;" x1="596" x2="596" y1="277.2969" y2="297.5938"/><rect fill="none" height="40.5938" rx="5" ry="5" style="stroke:#000000;stroke-width:1.5;" width="74" x="544" y="257"/><rect fill="#F1F1F1" height="40.5938" rx="5" ry="5" style="stroke:#F1F1F1;stroke-width:1.5;" width="96" x="750" y="246"/><text fill="#000000" font-family="sans-serif" font-size="14" font-weight="bold" lengthAdjust="spacing" textLength="30" x="755" y="260.9951">row</text><text fill="#000000" font-family="sans-serif" font-size="14" lengthAdjust="spacing" textLength="17" x="824" y="260.9951">18</text><line style="stroke:#000000;stroke-width:1.0;" x1="819" x2="819" y1="246" y2="266.2969"/><line style="stroke:#000000;stroke-width:1.0;" x1="750" x2="846" y1="266.2969" y2="266.2969"/><text fill="#000000" font-family="sans-serif" font-size="14" font-weight="bold" lengthAdjust="spacing" textLength="59" x="755" y="281.292">column</text><text fill="#000000" font-family="sans-serif" font-size="14" lengthAdjust="spacing" textLength="9" x="824" y="281.292">0</text><line style="stroke:#000000;stroke-width:1.0;" x1="819" x2="819" y1="266.2969" y2="286.5938"/><rect fill="none" height="40.5938" rx="5" ry="5" style="stroke:#000000;stroke-width:1.5;" width="96" x="750" y="246"/><rect fill="#F1F1F1" height="40.5938" rx="5" ry="5" style="stroke:#F1F1F1;stroke-width:1.5;" width="96" x="750" y="305"/><text fill="#000000" font-family="sans-serif" font-size="14" font-weight="bold" lengthAdjust="spacing" textLength="30" x="755" y="319.9951">row</text><text fill="#000000" font-family="sans-serif" font-size="14" lengthAdjust="spacing" textLength="17" x="824" y="319.9951">46</text><line style="stroke:#000000;stroke-width:1.0;" x1="819" x2="819" y1="305" y2="325.2969"/><line style="stroke:#000000;stroke-width:1.0;" x1="750" x2="846" y1="325.2969" y2="325.2969"/><text fill="#000000" font-family="sans-serif" font-size="14" font-weight="bold" lengthAdjust="spacing" textLength="59" x="755" y="340.292">column</text><text fill="#000000" font-family="sans-serif" font-size="14" lengthAdjust="spacing" textLength="9" x="824" y="340.292">1</text><line style="stroke:#000000;stroke-width:1.0;" x1="819" x2="819" y1="325.2969" y2="345.5938"/><rect fill="none" height="40.5938" rx="5" ry="5" style="stroke:#000000;stroke-width:1.5;" width="96" x="750" y="305"/><path d="M581.5,68.5 L594.5,68.5 C607.4863,68.5 670.7877,56.33 723.2967,45.7644 " fill="none" style="stroke:#000000;stroke-width:1.0;stroke-dasharray:3.0,3.0;"/><path d="M723.9149,48.8291 L725.5951,45.3008 L722.6784,42.6998 L730.9583,44.2189 L723.9149,48.8291 " fill="#000000" style="stroke:#000000;stroke-width:1.0;"/><ellipse cx="581.5" cy="68.5" fill="#000000" rx="3" ry="3" style="stroke:#000000;stroke-width:1.0;"/><path d="M581.5,89.5 L594.5,89.5 C630.5415,89.5 670.1825,89.5 704.7956,89.5 " fill="none" style="stroke:#000000;stroke-width:1.0;stroke-dasharray:3.0,3.0;"/><path d="M704.7956,92.6054 L707.1246,89.5 L704.7956,86.3946 L712.559,89.5 L704.7956,92.6054 " fill="#000000" style="stroke:#000000;stroke-width:1.0;"/><ellipse cx="581.5" cy="89.5" fill="#000000" rx="3" ry="3" style="stroke:#000000;stroke-width:1.0;"/><path d="M495,157.5 L508,157.5 C536.3155,157.5 556.6999,129.582 568.5084,107.1508 " fill="none" style="stroke:#000000;stroke-width:1.0;stroke-dasharray:3.0,3.0;"/><path d="M571.2077,108.5063 L569.525,105.1264 L565.8091,105.7954 L571.897,100.4026 L571.2077,108.5063 " fill="#000000" style="stroke:#000000;stroke-width:1.0;"/><ellipse cx="495" cy="157.5" fill="#000000" rx="3" ry="3" style="stroke:#000000;stroke-width:1.0;"/><path d="M581.5,167.5 L594.5,167.5 C611.7671,167.5 629.8246,166.8101 647.7443,165.6933 " fill="none" style="stroke:#000000;stroke-width:1.0;stroke-dasharray:3.0,3.0;"/><path d="M647.9459,168.7607 L650.0449,165.542 L647.5427,162.6258 L655.413,165.1892 L647.9459,168.7607 " fill="#000000" style="stroke:#000000;stroke-width:1.0;"/><ellipse cx="581.5" cy="167.5" fill="#000000" rx="3" ry="3" style="stroke:#000000;stroke-width:1.0;"/><path d="M581.5,188.5 L594.5,188.5 C644.0483,188.5 700.1045,194.1806 740.7377,199.3297 " fill="none" style="stroke:#000000;stroke-width:1.0;stroke-dasharray:3.0,3.0;"/><path d="M740.3428,202.393 L743.0352,199.6258 L741.1326,196.2663 L748.396,200.3169 L740.3428,202.393 " fill="#000000" style="stroke:#000000;stroke-width:1.0;"/><ellipse cx="581.5" cy="188.5" fill="#000000" rx="3" ry="3" style="stroke:#000000;stroke-width:1.0;"/><path d="M495,178.5 L508,178.5 C526.0975,178.5 546.736,178.5 561.3525,178.5 " fill="none" style="stroke:#000000;stroke-width:1.0;stroke-dasharray:3.0,3.0;"/><path d="M561.3525,181.6381 L563.7061,178.5 L561.3525,175.3619 L569.1979,178.5 L561.3525,181.6381 " fill="#000000" style="stroke:#000000;stroke-width:1.0;"/><ellipse cx="495" cy="178.5" fill="#000000" rx="3" ry="3" style="stroke:#000000;stroke-width:1.0;"/><path d="M606,266.5 L619,266.5 C660.3433,266.5 707.0728,266.5 742.3468,266.5 " fill="none" style="stroke:#000000;stroke-width:1.0;stroke-dasharray:3.0,3.0;"/><path d="M742.3468,269.6198 L744.6866,266.5 L742.3468,263.3802 L750.1462,266.5 L742.3468,269.6198 " fill="#000000" style="stroke:#000000;stroke-width:1.0;"/><ellipse cx="606" cy="266.5" fill="#000000" rx="3" ry="3" style="stroke:#000000;stroke-width:1.0;"/><path d="M606,287.5 L619,287.5 C635.4924,287.5 638.9155,292.8546 655,296.5 C683.797,303.0265 716.024,309.6424 742.5366,314.9039 " fill="none" style="stroke:#000000;stroke-width:1.0;stroke-dasharray:3.0,3.0;"/><path d="M741.9298,317.9741 L744.8393,315.3591 L743.1435,311.8337 L750.2121,316.4211 L741.9298,317.9741 " fill="#000000" style="stroke:#000000;stroke-width:1.0;"/><ellipse cx="606" cy="287.5" fill="#000000" rx="3" ry="3" style="stroke:#000000;stroke-width:1.0;"/><path d="M495,198.5 L508,198.5 C536.6795,198.5 557.0974,227.1115 568.8106,249.8974 " fill="none" style="stroke:#000000;stroke-width:1.0;stroke-dasharray:3.0,3.0;"/><path d="M566.072,251.2394 L569.8171,251.9513 L571.5491,248.5553 L572.1657,256.7437 L566.072,251.2394 " fill="#000000" style="stroke:#000000;stroke-width:1.0;"/><ellipse cx="495" cy="198.5" fill="#000000" rx="3" ry="3" style="stroke:#000000;stroke-width:1.0;"/><path d="M228.7139,168.5 L241.7139,168.5 C248.9797,168.5 259.0068,168.5 270.4649,168.5 " fill="none" style="stroke:#000000;stroke-width:1.0;stroke-dasharray:3.0,3.0;"/><path d="M270.4649,171.5886 L272.7814,168.5 L270.4649,165.4114 L278.1865,168.5 L270.4649,171.5886 " fill="#000000" style="stroke:#000000;stroke-width:1.0;"/><ellipse cx="228.7139" cy="168.5" fill="#000000" rx="3" ry="3" style="stroke:#000000;stroke-width:1.0;"/><path d="M168,168.5 L181,168.5 C190.374,168.5 200.7885,168.5 209.4714,168.5 " fill="none" style="stroke:#000000;stroke-width:1.0;stroke-dasharray:3.0,3.0;"/><path d="M209.4714,171.5815 L211.7825,168.5 L209.4714,165.4185 L217.1751,168.5 L209.4714,171.5815 " fill="#000000" style="stroke:#000000;stroke-width:1.0;"/><ellipse cx="168" cy="168.5" fill="#000000" rx="3" ry="3" style="stroke:#000000;stroke-width:1.0;"/><!--MD5=[fbe3ddb403811d442dd991d896285a10]
@startjson
!theme toy
{
  "path": "extract.go",
  "language": "GOLANG",
  "type": "func",
  "units": [
    {
      "name": "ExtractFunction",
      "receiver": "",
      "parameters": [
        {
          "type": "string",
          "name": "targetFile"
        },
        {
          "type": "*ExtractConfig",
          "name": "config"
        }
      ],
      "returns": [
        {
          "type": "[]*extractor.FunctionFileResult",
          "name": ""
        },
        {
          "type": "error",
          "name": ""
        }
      ],
      "span": {
        "start": {
          "row": 18,
          "column": 0
        },
        "end": {
          "row": 46,
          "column": 1
        }
      },
      "extras": null
    }
  ]
}
@endjson

@startjson
skinparam BackgroundColor DDDDDD
skinparam shadowing false
skinparam RoundCorner 7
skinparam ArrowColor 454645
skinparam FontColor 454645
skinparam SequenceLifeLineBorderColor 454645
skinparam SequenceGroupHeaderFontColor 454645
skinparam SequenceGroupFontColor 454645
skinparam SequenceGroupBorderColor 454645
skinparam SequenceGroupBorderThickness 1

skinparam sequenceDivider {
    BorderColor 454645
    BorderThickness 1
    FontColor 454645
}

skinparam participant {
    BackgroundColor FF6F61
    BorderColor 454645
    FontColor White
    BorderThickness 1.5
}

skinparam database {
    BackgroundColor 98DDDE
    BorderColor 454645
    FontColor 454645
}

skinparam entity {
    BackgroundColor FFDA29
    BorderColor 454645
    FontColor 454645
}

skinparam note {
    BackgroundColor LightGreen
    BorderColor 454645
    FontColor 454645
    BorderThickness 1
}

skinparam actor {
    BackgroundColor 454645
    BorderColor 454645
    FontColor 454645
}

skinparam boundary {
    BackgroundColor FFDA29
    BorderColor 454645
    FontColor 454645
}

skinparam control {
    BackgroundColor FFDA29
    BorderColor 454645
    FontColor 454645
}

skinparam collections {
    BackgroundColor FF6F61
    BorderColor 454645
    FontColor 454645
    BorderThickness 1.5
}

skinparam queue {
    BackgroundColor FF6F61
    BorderColor 454645
    FontColor FFF
    BorderThickness 1.5
}
{
  "path": "extract.go",
  "language": "GOLANG",
  "type": "func",
  "units": [
    {
      "name": "ExtractFunction",
      "receiver": "",
      "parameters": [
        {
          "type": "string",
          "name": "targetFile"
        },
        {
          "type": "*ExtractConfig",
          "name": "config"
        }
      ],
      "returns": [
        {
          "type": "[]*extractor.FunctionFileResult",
          "name": ""
        },
        {
          "type": "error",
          "name": ""
        }
      ],
      "span": {
        "start": {
          "row": 18,
          "column": 0
        },
        "end": {
          "row": 46,
          "column": 1
        }
      },
      "extras": null
    }
  ]
}
@endjson

PlantUML version 1.2022.13beta2(Unknown compile time)
(GPL source distribution)
Java Runtime: Java(TM) SE Runtime Environment
JVM: Java HotSpot(TM) 64-Bit Server VM
Default Encoding: UTF-8
Language: en
Country: US
--></g></svg>